<svg xmlns="http://www.w3.org/2000/svg" xmlns:xlink="http://www.w3.org/1999/xlink" width="106" zoomAndPan="magnify" viewBox="0 0 79.5 187.499992" height="250" preserveAspectRatio="xMidYMid meet" version="1.0"><defs><clipPath id="47bd13ff1c"><path d="M 0 28.210938 L 78 28.210938 L 78 186.664062 L 0 186.664062 Z M 0 28.210938 " clip-rule="nonzero"/></clipPath><clipPath id="6ca50dbeb7"><path d="M 7 101 L 64 101 L 64 186.664062 L 7 186.664062 Z M 7 101 " clip-rule="nonzero"/></clipPath><clipPath id="5595420495"><path d="M 18 28.210938 L 42 28.210938 L 42 99 L 18 99 Z M 18 28.210938 " clip-rule="nonzero"/></clipPath><clipPath id="23b4acb5b3"><path d="M 0 62 L 76 62 L 76 186.664062 L 0 186.664062 Z M 0 62 " clip-rule="nonzero"/></clipPath></defs><g clip-path="url(#47bd13ff1c)"><path fill="#173554" d="M 77.714844 75.042969 C 77.90625 74.738281 77.957031 74.347656 77.816406 73.988281 C 77.804688 73.957031 77.785156 73.933594 77.761719 73.914062 C 77.832031 73.726562 77.839844 73.515625 77.765625 73.316406 C 77.601562 72.871094 77.105469 72.636719 76.660156 72.796875 L 76.378906 72.90625 C 76.371094 72.816406 76.351562 72.726562 76.316406 72.640625 C 76.15625 72.273438 75.789062 72.054688 75.390625 72.09375 L 67.679688 72.882812 L 66.878906 72.882812 C 66.847656 72.882812 66.820312 72.882812 66.789062 72.882812 C 64.722656 72.882812 63.664062 74.871094 63.382812 75.496094 L 62.957031 75.300781 C 62.871094 75.261719 62.773438 75.289062 62.71875 75.367188 L 60.925781 77.992188 C 60.894531 78.039062 60.882812 78.09375 60.898438 78.148438 C 60.910156 78.203125 60.949219 78.246094 61 78.269531 L 61 78.273438 L 53.558594 89.773438 C 53.558594 89.773438 54.804688 66.523438 49.015625 61.175781 C 43.730469 56.292969 36.511719 54.21875 35.285156 53.894531 C 35.292969 53.871094 35.292969 53.84375 35.289062 53.816406 C 35.28125 53.769531 35.253906 53.722656 35.214844 53.691406 L 32.507812 51.707031 L 32.507812 50.09375 C 33.210938 50.050781 33.894531 49.929688 34.464844 49.675781 C 35.707031 49.128906 35.875 45.25 35.761719 41.742188 C 35.835938 41.75 35.914062 41.753906 35.992188 41.753906 C 37.191406 41.753906 38.164062 40.78125 38.164062 39.578125 C 38.164062 38.378906 37.191406 37.40625 35.992188 37.40625 C 35.820312 37.40625 35.65625 37.425781 35.496094 37.464844 C 35.484375 37.296875 35.46875 37.136719 35.453125 36.992188 C 35.527344 36.988281 35.601562 36.984375 35.667969 37.003906 C 37.835938 37.609375 38.691406 36.4375 38.691406 36.4375 C 36.71875 36.277344 36.363281 34.523438 36.363281 34.523438 C 40.277344 35.820312 41.476562 33.09375 41.476562 33.09375 C 39.632812 33.777344 39.113281 32.480469 39.113281 32.480469 C 41.121094 32.347656 41.476562 31.019531 41.476562 31.019531 C 41.476562 31.019531 39.824219 31.441406 37.558594 30.628906 C 35.296875 29.820312 33.453125 28.457031 28.40625 28.328125 C 23.355469 28.199219 20.089844 32.1875 18.957031 33.777344 C 17.960938 35.171875 20.035156 39.679688 20.554688 40.753906 C 20.363281 41.175781 20.328125 41.707031 20.453125 42.339844 C 20.882812 44.546875 22.527344 44.691406 23.078125 44.675781 C 23.304688 45.726562 24.550781 51.695312 24.085938 54.183594 L 22.148438 56.347656 C 22.09375 56.40625 22.085938 56.492188 22.125 56.5625 C 20.75 57.308594 11.039062 63.0625 10.320312 76.347656 C 9.578125 89.984375 7.984375 117.886719 7.839844 120.449219 L 7.828125 120.449219 C 7.722656 120.449219 7.636719 120.535156 7.636719 120.640625 L 7.636719 123.363281 C 7.105469 123.585938 4.992188 124.566406 4.253906 126.40625 C 3.976562 127.089844 3.726562 127.753906 3.589844 128.347656 L 2.941406 128.347656 C 1.339844 128.347656 0.0351562 129.652344 0.0351562 131.261719 L 0.0351562 132.136719 C 0.0351562 132.242188 0.121094 132.324219 0.222656 132.324219 L 6.632812 132.324219 L 6.632812 133.742188 C 6.632812 133.847656 6.71875 133.929688 6.824219 133.929688 L 7.640625 133.929688 L 8.378906 206.707031 C 8.378906 206.738281 8.386719 206.765625 8.402344 206.792969 C 7.863281 207.085938 7.386719 207.351562 7.019531 207.570312 C 4.882812 208.835938 3.914062 210.003906 4.105469 211.949219 L 20.023438 211.949219 L 20.898438 209.320312 L 21.867188 211.949219 L 27.109375 211.949219 C 27.109375 211.949219 27.753906 204.832031 24.921875 203.578125 L 26.433594 203.578125 C 26.53125 203.578125 26.609375 203.507812 26.621094 203.410156 L 34.496094 133.324219 C 34.71875 133.59375 34.890625 133.867188 35.027344 134.125 C 35.117188 134.3125 35.210938 134.515625 35.308594 134.742188 C 35.414062 135.019531 35.460938 135.214844 35.46875 135.25 L 52.9375 201.785156 C 52.964844 201.878906 53.054688 201.9375 53.152344 201.921875 L 54.121094 201.773438 C 52.953125 203.148438 54.578125 209.226562 54.578125 209.226562 L 59.042969 210.101562 L 59.917969 207.667969 L 60.597656 210.390625 L 75.542969 211.363281 C 75.542969 211.363281 75.835938 206.402344 72.242188 205.625 C 69.050781 204.933594 63.589844 201.28125 62.230469 200.507812 L 63.148438 200.367188 C 63.199219 200.359375 63.242188 200.332031 63.273438 200.289062 C 63.304688 200.25 63.316406 200.199219 63.308594 200.148438 C 63.265625 199.902344 59.222656 175.195312 55.183594 150.789062 C 51.828125 130.519531 49.820312 118.546875 48.601562 111.460938 C 49.375 111.476562 52.4375 110.953125 57.636719 102.910156 C 63.273438 94.179688 69.371094 84.15625 70.203125 82.789062 L 70.21875 82.792969 C 70.246094 82.808594 70.273438 82.8125 70.300781 82.8125 C 70.371094 82.8125 70.433594 82.777344 70.46875 82.714844 L 72.117188 79.699219 C 72.144531 79.652344 72.148438 79.597656 72.132812 79.546875 C 72.117188 79.496094 72.078125 79.457031 72.03125 79.433594 L 69.910156 78.46875 L 70.199219 78.125 L 72.351562 78.035156 C 72.945312 78.011719 73.535156 77.90625 74.101562 77.726562 L 76.757812 76.882812 C 77.480469 76.652344 77.929688 75.917969 77.800781 75.171875 C 77.792969 75.117188 77.757812 75.070312 77.714844 75.042969 Z M 9.957031 126.730469 C 10.667969 126.628906 11.179688 126.628906 11.523438 126.65625 C 10.976562 126.949219 10.425781 127.367188 10.003906 127.953125 C 9.902344 128.097656 9.828125 128.226562 9.765625 128.347656 L 8.316406 128.347656 C 8.367188 128.273438 8.417969 128.203125 8.464844 128.132812 C 8.945312 127.425781 9.363281 126.816406 9.957031 126.730469 Z M 14.363281 128.347656 C 14.640625 128.253906 14.878906 128.183594 15.042969 128.136719 L 15.039062 128.347656 Z M 9.839844 206.023438 L 10.570312 133.929688 L 11.5625 133.929688 C 11.667969 133.929688 11.75 133.84375 11.75 133.742188 L 11.75 132.324219 L 14.984375 132.324219 L 14.003906 203.386719 C 14.003906 203.4375 14.023438 203.484375 14.058594 203.523438 C 14.09375 203.558594 14.144531 203.578125 14.195312 203.578125 L 14.597656 203.578125 C 13.765625 203.996094 11.707031 205.042969 9.839844 206.023438 Z M 9.839844 206.023438 " fill-opacity="1" fill-rule="nonzero"/></g><path fill="#f4f4f4" d="M 12.128906 129.167969 C 11.140625 129.867188 9.320312 129.828125 9.886719 128.535156 L 7.949219 128.535156 C 7.375 129.328125 6.664062 130.089844 5.464844 130.269531 C 3.789062 130.523438 3.515625 129.695312 3.746094 128.535156 L 2.941406 128.535156 C 1.441406 128.535156 0.222656 129.757812 0.222656 131.261719 L 0.222656 132.136719 L 6.824219 132.136719 L 6.824219 133.742188 L 11.5625 133.742188 L 11.5625 132.136719 L 15.175781 132.136719 L 15.226562 128.535156 L 13.316406 128.535156 C 12.890625 128.71875 12.46875 128.929688 12.128906 129.167969 Z M 12.128906 129.167969 " fill-opacity="1" fill-rule="nonzero"/><g clip-path="url(#6ca50dbeb7)"><path fill="#ffffff" d="M 8.570312 206.703125 L 7.828125 133.742188 L 10.382812 133.742188 L 9.648438 206.125 C 9.273438 206.324219 8.910156 206.519531 8.570312 206.703125 Z M 15.582031 102.753906 L 14.195312 203.386719 L 26.433594 203.386719 L 34.351562 132.894531 C 34.351562 132.894531 35.480469 134.554688 36.265625 137.535156 C 37.046875 140.515625 53.121094 201.734375 53.121094 201.734375 L 63.121094 200.175781 L 46.570312 101.339844 C 46.570312 101.339844 41.085938 102.515625 37.449219 102.320312 C 33.808594 102.125 17.695312 102.855469 17.695312 102.855469 Z M 15.582031 102.753906 " fill-opacity="1" fill-rule="nonzero"/></g><path fill="#173554" d="M 22.289062 56.472656 C 22.289062 56.472656 11.09375 62.050781 10.320312 76.347656 C 9.542969 90.648438 7.828125 120.640625 7.828125 120.640625 L 7.828125 123.492188 L 15.234375 123.492188 L 15.632812 102.808594 C 15.632812 102.808594 16.6875 102.921875 19.183594 102.839844 C 21.675781 102.761719 37.496094 102.269531 37.496094 102.269531 C 37.496094 102.269531 43.117188 101.882812 43.320312 101.851562 C 43.527344 101.816406 46.570312 101.34375 46.570312 101.34375 L 48.40625 111.441406 C 48.40625 111.441406 51.570312 112.300781 57.636719 102.910156 C 63.703125 93.519531 70.300781 82.625 70.300781 82.625 L 71.953125 79.609375 L 62.972656 75.472656 L 61.082031 78.148438 L 53.558594 89.773438 C 53.558594 89.773438 54.804688 66.523438 49.011719 61.175781 C 43.222656 55.824219 35.101562 53.847656 35.101562 53.847656 L 32.320312 51.804688 L 27.546875 57.039062 L 24.261719 54.269531 Z M 22.289062 56.472656 " fill-opacity="1" fill-rule="nonzero"/><path fill="#f4f4f4" d="M 23.15625 44.566406 C 21.457031 44.800781 20.460938 42.765625 20.570312 41.085938 C 20.679688 39.410156 22.523438 39.703125 23.203125 39.742188 C 23.882812 39.78125 24.441406 42.058594 24.441406 42.058594 C 24.441406 42.058594 25.605469 36.6875 26.332031 35.394531 C 27.0625 34.105469 28.128906 34.058594 29.367188 33.621094 C 30.605469 33.183594 33.808594 33.621094 34.511719 33.839844 C 35.214844 34.058594 35.285156 37.277344 35.285156 37.277344 C 35.285156 37.277344 35.546875 45.464844 35.519531 45.878906 C 35.496094 46.289062 35.304688 47.660156 34.957031 48.835938 C 34.609375 50.011719 32.320312 49.917969 32.320312 49.917969 L 32.320312 51.804688 L 27.546875 57.039062 L 24.261719 54.269531 C 24.789062 51.496094 23.15625 44.566406 23.15625 44.566406 Z M 77.640625 74.054688 C 77.792969 74.453125 77.675781 74.886719 77.382812 75.15625 L 77.613281 75.203125 C 77.726562 75.859375 77.335938 76.5 76.703125 76.699219 L 74.042969 77.542969 C 73.492188 77.71875 72.921875 77.820312 72.34375 77.84375 L 70.109375 77.9375 L 69.601562 78.539062 L 63.480469 75.75 C 63.480469 75.75 64.476562 73.007812 66.871094 73.074219 L 67.679688 73.074219 L 75.40625 72.285156 C 75.71875 72.253906 76.015625 72.425781 76.140625 72.714844 C 76.207031 72.871094 76.210938 73.039062 76.167969 73.191406 L 76.171875 73.191406 L 76.449219 73.074219 L 76.722656 72.976562 C 77.074219 72.851562 77.457031 73.03125 77.585938 73.378906 C 77.710938 73.71875 77.550781 74.09375 77.222656 74.238281 M 13.878906 126.152344 C 13.878906 126.152344 11.417969 126.316406 10.15625 128.066406 C 8.894531 129.816406 11.03125 129.945312 12.128906 129.167969 C 13.230469 128.390625 15.234375 127.886719 15.234375 127.886719 L 15.234375 123.492188 L 7.828125 123.492188 C 7.828125 123.492188 5.238281 124.464844 4.429688 126.476562 C 3.621094 128.488281 2.878906 130.660156 5.464844 130.269531 C 8.054688 129.882812 8.378906 126.769531 9.929688 126.542969 C 11.484375 126.316406 12.128906 126.574219 12.128906 126.574219 " fill-opacity="1" fill-rule="nonzero"/><path fill="#173554" d="M 32.851562 45.875 C 31.683594 45.785156 30.726562 44.6875 30.714844 44.675781 C 30.648438 44.597656 30.527344 44.585938 30.449219 44.65625 C 30.367188 44.722656 30.359375 44.84375 30.429688 44.925781 C 30.472656 44.976562 31.496094 46.152344 32.820312 46.253906 C 32.828125 46.253906 32.832031 46.253906 32.835938 46.253906 C 32.933594 46.253906 33.019531 46.179688 33.027344 46.078125 C 33.035156 45.972656 32.957031 45.882812 32.851562 45.875 Z M 32.851562 45.875 " fill-opacity="1" fill-rule="nonzero"/><path fill="#173554" d="M 27.464844 37.46875 C 27.507812 37.46875 27.550781 37.453125 27.585938 37.425781 C 29.492188 35.878906 31.523438 37.035156 31.609375 37.085938 C 31.699219 37.140625 31.816406 37.109375 31.867188 37.015625 C 31.921875 36.925781 31.890625 36.808594 31.800781 36.757812 C 31.777344 36.742188 29.460938 35.414062 27.347656 37.128906 C 27.265625 37.195312 27.253906 37.316406 27.316406 37.398438 C 27.355469 37.445312 27.410156 37.46875 27.464844 37.46875 Z M 27.464844 37.46875 " fill-opacity="1" fill-rule="nonzero"/><g clip-path="url(#5595420495)"><path fill="#173554" d="M 20.453125 42.339844 C 20.882812 44.546875 22.527344 44.691406 23.078125 44.675781 C 23.304688 45.726562 24.550781 51.695312 24.085938 54.183594 L 22.148438 56.347656 C 22.09375 56.40625 22.082031 56.496094 22.125 56.566406 L 25.359375 62.273438 C 25.394531 62.332031 25.457031 62.371094 25.523438 62.371094 C 25.53125 62.371094 25.535156 62.371094 25.539062 62.371094 C 25.613281 62.363281 25.675781 62.316406 25.703125 62.25 L 27.253906 58.230469 C 27.164062 62.90625 26.847656 81.402344 27.46875 87.554688 C 27.910156 91.941406 27.273438 93.828125 26.761719 95.347656 C 26.453125 96.261719 26.183594 97.050781 26.253906 98.148438 C 26.261719 98.25 26.347656 98.328125 26.445312 98.328125 C 26.449219 98.328125 26.453125 98.328125 26.457031 98.328125 C 26.5625 98.320312 26.640625 98.230469 26.636719 98.125 C 26.570312 97.101562 26.8125 96.378906 27.121094 95.46875 C 27.644531 93.917969 28.296875 91.984375 27.847656 87.515625 C 27.226562 81.367188 27.542969 62.828125 27.636719 58.207031 L 28.96875 62.015625 C 28.992188 62.082031 29.050781 62.128906 29.121094 62.140625 C 29.128906 62.140625 29.140625 62.140625 29.148438 62.140625 C 29.207031 62.140625 29.265625 62.113281 29.300781 62.066406 L 35.253906 53.957031 C 35.285156 53.917969 35.296875 53.867188 35.289062 53.816406 C 35.28125 53.765625 35.253906 53.722656 35.214844 53.691406 L 32.507812 51.707031 L 32.507812 50.089844 C 33.210938 50.046875 33.894531 49.925781 34.464844 49.675781 C 35.707031 49.128906 35.875 45.25 35.761719 41.742188 C 35.835938 41.75 35.914062 41.753906 35.992188 41.753906 C 37.191406 41.753906 38.164062 40.78125 38.164062 39.578125 C 38.164062 38.378906 37.191406 37.402344 35.992188 37.402344 C 35.824219 37.402344 35.65625 37.425781 35.496094 37.464844 C 35.484375 37.296875 35.46875 37.136719 35.453125 36.992188 C 35.527344 36.984375 35.601562 36.984375 35.667969 37.003906 C 37.835938 37.609375 38.691406 36.4375 38.691406 36.4375 C 36.71875 36.277344 36.363281 34.519531 36.363281 34.519531 C 40.277344 35.816406 41.476562 33.09375 41.476562 33.09375 C 39.632812 33.773438 39.113281 32.476562 39.113281 32.476562 C 41.121094 32.347656 41.476562 31.019531 41.476562 31.019531 C 41.476562 31.019531 39.824219 31.441406 37.5625 30.628906 C 35.296875 29.820312 33.453125 28.457031 28.40625 28.328125 C 23.359375 28.199219 20.089844 32.1875 18.957031 33.773438 C 17.960938 35.171875 20.035156 39.679688 20.554688 40.753906 C 20.363281 41.175781 20.328125 41.707031 20.453125 42.339844 Z M 25.492188 61.738281 L 22.523438 56.496094 L 24.277344 54.539062 L 27.242188 57.207031 Z M 29.207031 61.550781 L 27.683594 57.199219 L 28.082031 56.757812 L 32.34375 52.058594 L 34.835938 53.886719 Z M 34.3125 49.328125 C 32.261719 50.230469 28.488281 49.324219 28.449219 49.316406 C 28.347656 49.292969 28.242188 49.355469 28.21875 49.457031 C 28.195312 49.558594 28.257812 49.664062 28.359375 49.6875 C 28.464844 49.710938 30.132812 50.113281 31.878906 50.113281 C 31.960938 50.113281 32.046875 50.105469 32.128906 50.105469 L 32.128906 51.730469 L 27.453125 56.886719 L 24.46875 54.199219 C 24.960938 51.367188 23.476562 44.71875 23.414062 44.433594 C 23.390625 44.335938 23.300781 44.273438 23.199219 44.289062 C 23.121094 44.300781 21.269531 44.546875 20.828125 42.265625 C 20.683594 41.539062 20.773438 40.980469 21.089844 40.609375 C 21.550781 40.070312 22.371094 40.09375 22.378906 40.09375 C 22.378906 40.09375 22.382812 40.09375 22.382812 40.09375 C 22.382812 40.09375 22.386719 40.09375 22.386719 40.09375 C 22.390625 40.09375 22.394531 40.09375 22.398438 40.09375 L 23.019531 40.0625 C 23.71875 40.644531 24.019531 42.464844 24.585938 42.464844 C 24.96875 42.464844 25.023438 41.371094 25.238281 39.941406 L 27.667969 39.808594 C 27.785156 40.902344 28.707031 41.753906 29.828125 41.753906 C 30.960938 41.753906 31.890625 40.882812 31.988281 39.769531 L 33.621094 39.769531 C 33.582031 40.613281 33.589844 41.625 33.75 42.40625 C 33.875 43.023438 33.851562 43.40625 33.683594 43.546875 C 33.476562 43.71875 32.949219 43.625 32.070312 43.261719 C 31.972656 43.222656 31.863281 43.269531 31.824219 43.367188 C 31.78125 43.460938 31.828125 43.574219 31.925781 43.613281 C 32.574219 43.878906 33.039062 44.011719 33.382812 44.011719 C 33.613281 44.011719 33.789062 43.953125 33.925781 43.839844 C 34.222656 43.59375 34.285156 43.125 34.121094 42.332031 C 34.007812 41.769531 33.976562 41.070312 33.984375 40.40625 C 34.230469 41.007812 34.738281 41.472656 35.367188 41.664062 C 35.488281 45.210938 35.332031 48.878906 34.3125 49.328125 Z M 33.820312 33.96875 C 34.589844 34.078125 34.863281 35.132812 34.980469 36 C 34.980469 36.011719 34.976562 36.023438 34.976562 36.035156 C 35 36.242188 35.023438 36.472656 35.046875 36.71875 C 35 36.703125 34.953125 36.691406 34.902344 36.683594 C 34.488281 36.636719 34.113281 36.933594 34.074219 36.96875 C 33.992188 37.035156 33.980469 37.15625 34.046875 37.234375 C 34.113281 37.316406 34.234375 37.328125 34.316406 37.261719 C 34.394531 37.199219 34.644531 37.035156 34.859375 37.0625 C 34.949219 37.074219 35.023438 37.125 35.089844 37.203125 C 35.101562 37.328125 35.113281 37.457031 35.125 37.585938 C 34.683594 37.78125 34.316406 38.117188 34.085938 38.539062 C 34.109375 38.320312 34.125 38.183594 34.125 38.175781 C 34.136719 38.070312 34.0625 37.976562 33.960938 37.964844 C 33.855469 37.953125 33.761719 38.027344 33.746094 38.128906 C 33.742188 38.175781 33.679688 38.691406 33.636719 39.390625 L 31.988281 39.390625 C 31.890625 38.277344 30.960938 37.40625 29.828125 37.40625 C 28.679688 37.40625 27.742188 38.300781 27.664062 39.429688 L 25.300781 39.554688 C 25.488281 38.421875 25.796875 37.125 26.445312 36.011719 C 28.011719 33.320312 32.417969 33.777344 33.820312 33.96875 Z M 33.820312 33.96875 " fill-opacity="1" fill-rule="nonzero"/></g><path fill="#173554" d="M 32.710938 69.019531 C 32.710938 69.125 32.796875 69.210938 32.902344 69.210938 L 41.507812 69.210938 C 41.613281 69.210938 41.699219 69.125 41.699219 69.019531 C 41.699219 68.914062 41.613281 68.832031 41.507812 68.832031 L 32.902344 68.832031 C 32.796875 68.832031 32.710938 68.914062 32.710938 69.019531 Z M 32.710938 69.019531 " fill-opacity="1" fill-rule="nonzero"/><path fill="#173554" d="M 32.253906 129.203125 C 31.3125 129.203125 30.554688 127.175781 30.503906 126.078125 L 29.207031 104.09375 C 29.203125 103.988281 29.113281 103.910156 29.007812 103.914062 C 28.902344 103.921875 28.824219 104.011719 28.828125 104.117188 L 30.125 126.097656 C 30.179688 127.28125 30.984375 129.585938 32.253906 129.585938 C 32.359375 129.585938 32.445312 129.5 32.445312 129.394531 C 32.445312 129.289062 32.359375 129.203125 32.253906 129.203125 Z M 32.253906 129.203125 " fill-opacity="1" fill-rule="nonzero"/><g clip-path="url(#23b4acb5b3)"><path fill="#173554" d="M 72.242188 205.625 C 69.050781 204.933594 63.589844 201.28125 62.230469 200.507812 L 63.148438 200.367188 C 63.199219 200.359375 63.242188 200.332031 63.273438 200.289062 C 63.304688 200.25 63.316406 200.199219 63.308594 200.148438 C 63.265625 199.902344 59.222656 175.195312 55.183594 150.789062 C 48.398438 109.796875 47.113281 102.714844 46.773438 101.449219 C 46.882812 101.382812 46.980469 101.300781 47.066406 101.191406 C 47.742188 100.347656 47.667969 98.085938 46.742188 91.109375 C 44.917969 77.355469 44.699219 69.523438 46.070312 67.171875 C 47.585938 64.578125 49.121094 63.277344 49.136719 63.265625 C 49.214844 63.199219 49.226562 63.078125 49.160156 62.996094 C 49.089844 62.917969 48.972656 62.90625 48.890625 62.972656 C 48.828125 63.027344 47.296875 64.324219 45.742188 66.980469 C 44.324219 69.40625 44.53125 77.316406 46.367188 91.160156 C 47.253906 97.847656 47.351562 100.226562 46.769531 100.953125 C 46.53125 101.25 46.140625 101.285156 45.601562 101.332031 C 45.417969 101.347656 45.226562 101.367188 45.015625 101.394531 C 44.699219 101.429688 44.300781 101.496094 43.878906 101.566406 C 43.363281 101.652344 42.832031 101.742188 42.363281 101.789062 C 41.523438 101.871094 33.226562 102.242188 31.953125 102.289062 C 31.898438 102.289062 31.847656 102.292969 31.792969 102.292969 C 31.417969 102.304688 30.328125 102.335938 28.894531 102.375 C 27.515625 102.414062 25.816406 102.460938 24.136719 102.507812 C 23.691406 102.519531 23.257812 102.53125 22.835938 102.539062 C 20.085938 102.609375 17.914062 102.664062 16.71875 102.714844 C 15.84375 102.75 15.210938 102.496094 14.835938 101.953125 C 13.546875 100.101562 15.425781 95.535156 15.445312 95.488281 C 15.460938 95.449219 15.464844 95.402344 15.449219 95.359375 C 13.546875 89.054688 16.878906 69.574219 16.914062 69.378906 C 16.917969 69.347656 16.914062 69.3125 16.902344 69.28125 L 15.449219 65.195312 C 15.414062 65.097656 15.304688 65.046875 15.203125 65.082031 C 15.105469 65.117188 15.054688 65.226562 15.089844 65.324219 L 16.527344 69.363281 C 16.300781 70.6875 13.207031 89.050781 15.066406 95.40625 C 14.828125 96 13.1875 100.25 14.523438 102.171875 C 14.742188 102.488281 15.035156 102.726562 15.390625 102.878906 L 15.148438 120.453125 L 7.828125 120.453125 C 7.722656 120.453125 7.636719 120.535156 7.636719 120.640625 L 7.636719 123.367188 C 7.105469 123.585938 4.992188 124.570312 4.253906 126.40625 C 3.976562 127.089844 3.726562 127.757812 3.589844 128.347656 L 2.941406 128.347656 C 1.339844 128.347656 0.0351562 129.65625 0.0351562 131.261719 L 0.0351562 132.136719 C 0.0351562 132.242188 0.121094 132.328125 0.222656 132.328125 L 6.632812 132.328125 L 6.632812 133.742188 C 6.632812 133.847656 6.71875 133.933594 6.824219 133.933594 L 7.640625 133.933594 L 8.378906 206.707031 C 8.378906 206.738281 8.386719 206.765625 8.402344 206.792969 C 7.863281 207.085938 7.386719 207.355469 7.019531 207.570312 C 4.882812 208.835938 3.914062 210.003906 4.105469 211.949219 L 20.023438 211.949219 L 20.898438 209.324219 L 21.867188 211.949219 L 27.109375 211.949219 C 27.109375 211.949219 27.753906 204.832031 24.921875 203.578125 L 26.433594 203.578125 C 26.53125 203.578125 26.609375 203.507812 26.621094 203.410156 L 34.496094 133.324219 C 35.226562 134.207031 35.449219 135.171875 35.46875 135.25 L 52.9375 201.785156 C 52.964844 201.878906 53.054688 201.9375 53.152344 201.925781 L 54.121094 201.773438 C 52.953125 203.148438 54.578125 209.226562 54.578125 209.226562 L 59.042969 210.101562 L 59.917969 207.667969 L 60.597656 210.394531 L 75.542969 211.367188 C 75.542969 211.363281 75.835938 206.402344 72.242188 205.625 Z M 15.039062 128.347656 L 14.363281 128.347656 C 14.640625 128.253906 14.878906 128.183594 15.042969 128.136719 Z M 8.015625 120.832031 L 15.105469 120.832031 L 15.105469 123.300781 L 8.015625 123.300781 Z M 4.605469 126.546875 C 5.328125 124.757812 7.574219 123.800781 7.863281 123.683594 L 15.046875 123.683594 L 15.046875 127.742188 C 14.644531 127.851562 13.496094 128.183594 12.570312 128.679688 C 12.5625 128.683594 12.550781 128.6875 12.542969 128.695312 C 12.464844 128.738281 12.386719 128.78125 12.3125 128.824219 C 12.292969 128.835938 12.269531 128.847656 12.25 128.863281 C 12.171875 128.910156 12.09375 128.960938 12.019531 129.011719 C 11.945312 129.066406 11.859375 129.117188 11.773438 129.160156 C 11.753906 129.171875 11.734375 129.179688 11.714844 129.1875 C 11.644531 129.21875 11.574219 129.253906 11.503906 129.28125 C 11.480469 129.289062 11.460938 129.292969 11.441406 129.296875 C 11.367188 129.324219 11.292969 129.347656 11.21875 129.363281 C 11.195312 129.371094 11.171875 129.375 11.148438 129.378906 C 11.078125 129.394531 11.011719 129.40625 10.945312 129.414062 C 10.90625 129.421875 10.871094 129.421875 10.832031 129.421875 C 10.785156 129.425781 10.734375 129.429688 10.691406 129.429688 C 10.632812 129.429688 10.578125 129.425781 10.523438 129.417969 C 10.503906 129.417969 10.480469 129.417969 10.460938 129.414062 C 10.390625 129.402344 10.328125 129.386719 10.269531 129.363281 C 10.269531 129.363281 10.265625 129.363281 10.261719 129.363281 C 10.199219 129.339844 10.144531 129.308594 10.101562 129.269531 C 9.941406 129.140625 9.925781 128.917969 10.058594 128.613281 C 10.0625 128.609375 10.058594 128.601562 10.0625 128.597656 C 10.132812 128.441406 10.230469 128.289062 10.3125 128.175781 C 11.503906 126.523438 13.867188 126.34375 13.890625 126.34375 C 13.996094 126.335938 14.074219 126.246094 14.066406 126.140625 C 14.058594 126.035156 13.96875 125.953125 13.867188 125.960938 C 13.808594 125.964844 13.035156 126.023438 12.136719 126.375 C 11.929688 126.3125 11.234375 126.160156 9.902344 126.351562 C 9.140625 126.464844 8.660156 127.171875 8.152344 127.917969 C 8.027344 128.097656 7.894531 128.285156 7.761719 128.472656 C 7.710938 128.535156 7.664062 128.601562 7.613281 128.664062 C 7.558594 128.734375 7.503906 128.800781 7.445312 128.871094 C 7.417969 128.902344 7.394531 128.929688 7.371094 128.960938 C 7.277344 129.066406 7.179688 129.167969 7.078125 129.261719 C 7.074219 129.269531 7.066406 129.273438 7.058594 129.28125 C 6.964844 129.367188 6.867188 129.449219 6.761719 129.527344 C 6.738281 129.542969 6.714844 129.558594 6.691406 129.578125 C 6.601562 129.640625 6.507812 129.699219 6.410156 129.753906 C 6.375 129.769531 6.34375 129.789062 6.308594 129.804688 C 6.210938 129.855469 6.109375 129.894531 6.003906 129.933594 C 5.964844 129.945312 5.929688 129.960938 5.890625 129.976562 C 5.75 130.019531 5.597656 130.058594 5.4375 130.082031 C 5.277344 130.105469 5.132812 130.117188 5 130.125 C 4.988281 130.125 4.980469 130.125 4.96875 130.125 C 4.84375 130.128906 4.726562 130.121094 4.621094 130.105469 C 4.609375 130.101562 4.597656 130.101562 4.585938 130.097656 C 4.484375 130.082031 4.394531 130.054688 4.316406 130.019531 C 4.308594 130.015625 4.296875 130.011719 4.289062 130.007812 C 4.210938 129.972656 4.144531 129.925781 4.089844 129.867188 C 4.085938 129.863281 4.082031 129.859375 4.074219 129.855469 C 4.023438 129.796875 3.980469 129.730469 3.945312 129.652344 C 3.945312 129.648438 3.945312 129.648438 3.945312 129.644531 C 3.84375 129.398438 3.839844 129.042969 3.933594 128.574219 C 3.933594 128.574219 3.933594 128.570312 3.933594 128.570312 C 4.058594 127.957031 4.332031 127.234375 4.605469 126.546875 Z M 9.765625 128.347656 L 8.316406 128.347656 C 8.367188 128.273438 8.417969 128.203125 8.464844 128.132812 C 8.945312 127.425781 9.363281 126.816406 9.957031 126.730469 C 10.667969 126.628906 11.179688 126.628906 11.523438 126.65625 C 10.976562 126.949219 10.425781 127.367188 10.003906 127.953125 C 9.898438 128.097656 9.828125 128.226562 9.765625 128.347656 Z M 6.824219 131.945312 L 0.414062 131.945312 L 0.414062 131.261719 C 0.414062 129.863281 1.546875 128.726562 2.941406 128.726562 L 3.515625 128.726562 C 3.433594 129.265625 3.480469 129.726562 3.738281 130.054688 C 3.753906 130.070312 3.769531 130.082031 3.785156 130.097656 C 3.792969 130.105469 3.796875 130.117188 3.804688 130.125 C 3.84375 130.167969 3.886719 130.207031 3.933594 130.242188 C 3.949219 130.253906 3.96875 130.261719 3.984375 130.273438 C 4.042969 130.3125 4.105469 130.34375 4.167969 130.375 C 4.191406 130.382812 4.214844 130.394531 4.238281 130.402344 C 4.320312 130.433594 4.410156 130.457031 4.503906 130.472656 C 4.527344 130.476562 4.554688 130.480469 4.578125 130.484375 C 4.671875 130.496094 4.769531 130.503906 4.871094 130.503906 C 4.882812 130.503906 4.894531 130.507812 4.90625 130.507812 C 4.914062 130.507812 4.921875 130.507812 4.925781 130.507812 C 4.972656 130.507812 5.023438 130.503906 5.074219 130.5 C 5.117188 130.5 5.15625 130.5 5.199219 130.496094 C 5.292969 130.484375 5.390625 130.476562 5.496094 130.460938 C 5.632812 130.4375 5.761719 130.40625 5.890625 130.375 C 5.917969 130.367188 5.945312 130.359375 5.972656 130.351562 C 6.089844 130.3125 6.203125 130.273438 6.3125 130.226562 C 6.335938 130.214844 6.359375 130.203125 6.382812 130.191406 C 6.476562 130.148438 6.5625 130.105469 6.644531 130.058594 C 6.671875 130.042969 6.695312 130.03125 6.71875 130.015625 C 6.8125 129.957031 6.898438 129.898438 6.984375 129.835938 C 7.011719 129.8125 7.042969 129.792969 7.070312 129.769531 C 7.144531 129.710938 7.214844 129.652344 7.28125 129.589844 C 7.304688 129.570312 7.324219 129.550781 7.347656 129.53125 C 7.417969 129.464844 7.484375 129.398438 7.546875 129.328125 C 7.570312 129.304688 7.589844 129.285156 7.609375 129.261719 C 7.683594 129.179688 7.753906 129.097656 7.824219 129.015625 C 7.824219 129.015625 7.824219 129.011719 7.828125 129.011719 C 7.902344 128.917969 7.976562 128.824219 8.046875 128.726562 L 9.617188 128.726562 C 9.523438 129.132812 9.660156 129.382812 9.789062 129.511719 C 9.804688 129.527344 9.824219 129.535156 9.839844 129.546875 C 9.84375 129.554688 9.851562 129.5625 9.859375 129.566406 C 9.867188 129.574219 9.878906 129.578125 9.890625 129.585938 C 9.949219 129.628906 10.011719 129.667969 10.082031 129.699219 C 10.09375 129.703125 10.109375 129.707031 10.121094 129.710938 C 10.195312 129.742188 10.273438 129.765625 10.359375 129.78125 C 10.367188 129.785156 10.378906 129.785156 10.390625 129.785156 C 10.480469 129.800781 10.570312 129.808594 10.667969 129.8125 C 10.675781 129.8125 10.679688 129.808594 10.6875 129.808594 C 10.789062 129.8125 10.890625 129.804688 10.996094 129.792969 C 11 129.792969 11 129.789062 11.003906 129.789062 C 11.113281 129.777344 11.222656 129.757812 11.332031 129.730469 C 11.332031 129.726562 11.335938 129.726562 11.339844 129.726562 C 11.445312 129.699219 11.550781 129.667969 11.65625 129.628906 C 11.671875 129.621094 11.6875 129.613281 11.703125 129.605469 C 11.792969 129.570312 11.878906 129.535156 11.960938 129.492188 C 12.042969 129.449219 12.121094 129.402344 12.195312 129.351562 C 12.210938 129.34375 12.226562 129.335938 12.242188 129.324219 C 12.308594 129.277344 12.382812 129.230469 12.460938 129.179688 C 12.480469 129.167969 12.503906 129.15625 12.523438 129.144531 C 12.582031 129.109375 12.644531 129.074219 12.710938 129.039062 C 12.734375 129.023438 12.761719 129.007812 12.789062 128.996094 C 12.851562 128.960938 12.917969 128.929688 12.988281 128.894531 C 13.015625 128.882812 13.046875 128.867188 13.074219 128.855469 C 13.148438 128.820312 13.226562 128.785156 13.304688 128.75 C 13.320312 128.742188 13.339844 128.734375 13.355469 128.726562 L 15.035156 128.726562 L 14.988281 131.945312 L 11.5625 131.945312 C 11.457031 131.945312 11.371094 132.03125 11.371094 132.136719 L 11.371094 133.550781 L 7.015625 133.550781 L 7.015625 132.136719 C 7.015625 132.03125 6.929688 131.945312 6.824219 131.945312 Z M 8.019531 133.929688 L 10.191406 133.929688 L 9.460938 206.011719 C 9.21875 206.136719 8.984375 206.261719 8.753906 206.386719 Z M 9.839844 206.023438 L 10.570312 133.929688 L 11.5625 133.929688 C 11.667969 133.929688 11.75 133.84375 11.75 133.742188 L 11.75 132.324219 L 14.984375 132.324219 L 14.003906 203.386719 C 14.003906 203.4375 14.023438 203.484375 14.058594 203.523438 C 14.09375 203.558594 14.144531 203.578125 14.195312 203.578125 L 14.597656 203.578125 C 13.765625 203.996094 11.707031 205.042969 9.839844 206.023438 Z M 35.835938 135.160156 C 35.832031 135.136719 35.539062 133.847656 34.519531 132.800781 C 34.5 132.773438 34.476562 132.746094 34.445312 132.730469 C 33.804688 132.105469 32.894531 131.582031 31.617188 131.507812 C 31.503906 131.5 31.421875 131.582031 31.414062 131.6875 C 31.410156 131.792969 31.488281 131.882812 31.59375 131.886719 C 32.746094 131.957031 33.570312 132.40625 34.15625 132.960938 L 26.265625 203.199219 L 14.386719 203.199219 L 15.367188 132.136719 L 15.417969 128.539062 L 15.425781 127.890625 C 15.425781 127.890625 15.425781 127.886719 15.425781 127.886719 L 15.425781 127.882812 L 15.484375 123.492188 L 15.769531 103.035156 C 16.136719 103.121094 16.71875 103.121094 17.21875 103.097656 C 17.914062 103.066406 21.003906 102.976562 24.167969 102.886719 C 26.53125 102.828125 29.164062 102.757812 31.738281 102.675781 C 31.808594 102.675781 31.867188 102.671875 31.90625 102.671875 C 31.929688 102.671875 31.960938 102.667969 32 102.667969 C 35.960938 102.539062 39.746094 102.382812 42.152344 102.1875 C 42.261719 102.179688 42.347656 102.171875 42.402344 102.167969 C 42.417969 102.164062 42.433594 102.164062 42.449219 102.160156 C 43.390625 102.078125 44.09375 101.988281 44.46875 101.890625 C 44.679688 101.832031 44.882812 101.796875 45.074219 101.769531 C 45.082031 101.769531 45.089844 101.769531 45.09375 101.769531 C 45.296875 101.75 45.476562 101.742188 45.644531 101.738281 C 45.949219 101.726562 46.222656 101.714844 46.460938 101.621094 C 47.386719 105.648438 57.519531 167.132812 62.902344 200.019531 L 53.261719 201.519531 Z M 35.835938 135.160156 " fill-opacity="1" fill-rule="nonzero"/></g><path fill="#173554" d="M 77.714844 75.042969 C 77.90625 74.738281 77.957031 74.347656 77.816406 73.988281 C 77.804688 73.957031 77.785156 73.933594 77.761719 73.914062 C 77.832031 73.726562 77.839844 73.515625 77.765625 73.316406 C 77.601562 72.871094 77.105469 72.636719 76.660156 72.796875 L 76.378906 72.90625 C 76.371094 72.816406 76.351562 72.726562 76.316406 72.640625 C 76.15625 72.273438 75.789062 72.054688 75.390625 72.09375 L 67.679688 72.882812 L 66.878906 72.882812 C 66.847656 72.882812 66.820312 72.882812 66.789062 72.882812 C 64.722656 72.882812 63.664062 74.871094 63.382812 75.496094 L 62.957031 75.300781 C 62.871094 75.261719 62.773438 75.289062 62.71875 75.367188 L 60.925781 77.992188 C 60.894531 78.039062 60.882812 78.09375 60.898438 78.148438 C 60.910156 78.203125 60.949219 78.246094 61 78.269531 L 70.21875 82.792969 C 70.246094 82.808594 70.273438 82.8125 70.300781 82.8125 C 70.371094 82.8125 70.433594 82.777344 70.46875 82.714844 L 72.121094 79.699219 C 72.144531 79.652344 72.148438 79.597656 72.132812 79.546875 C 72.117188 79.496094 72.078125 79.457031 72.03125 79.433594 L 69.910156 78.46875 L 70.199219 78.125 L 72.351562 78.035156 C 72.945312 78.011719 73.535156 77.90625 74.101562 77.726562 L 76.757812 76.882812 C 77.480469 76.652344 77.929688 75.917969 77.800781 75.171875 C 77.792969 75.117188 77.757812 75.070312 77.714844 75.042969 Z M 70.222656 82.371094 L 61.363281 78.027344 L 62.941406 75.714844 L 69.496094 78.699219 L 69.523438 78.710938 L 71.6875 79.695312 Z M 76.644531 76.519531 L 73.988281 77.363281 C 73.453125 77.53125 72.894531 77.628906 72.335938 77.652344 L 70.101562 77.746094 C 70.046875 77.75 69.996094 77.773438 69.960938 77.816406 L 69.550781 78.304688 L 63.730469 75.652344 C 63.980469 75.089844 64.941406 73.261719 66.796875 73.261719 C 66.820312 73.261719 66.847656 73.265625 66.871094 73.265625 L 67.699219 73.261719 L 75.429688 72.472656 C 75.660156 72.453125 75.875 72.578125 75.964844 72.789062 C 76.023438 72.929688 76.023438 73.078125 75.964844 73.214844 C 75.902344 73.351562 75.792969 73.453125 75.652344 73.5 L 73.507812 74.230469 C 73.410156 74.265625 73.355469 74.375 73.390625 74.472656 C 73.425781 74.574219 73.53125 74.625 73.632812 74.59375 L 75.773438 73.863281 C 76.011719 73.78125 76.210938 73.601562 76.3125 73.371094 C 76.316406 73.359375 76.316406 73.347656 76.320312 73.335938 L 76.789062 73.15625 C 77.035156 73.066406 77.316406 73.195312 77.410156 73.445312 C 77.5 73.6875 77.382812 73.960938 77.144531 74.0625 L 73.6875 75.574219 C 73.59375 75.617188 73.546875 75.730469 73.589844 75.824219 C 73.621094 75.898438 73.691406 75.941406 73.765625 75.941406 C 73.789062 75.941406 73.816406 75.933594 73.839844 75.925781 L 77.296875 74.414062 C 77.375 74.378906 77.445312 74.332031 77.507812 74.277344 C 77.570312 74.652344 77.367188 75.03125 77.003906 75.175781 L 74.472656 76.171875 C 74.375 76.210938 74.324219 76.320312 74.363281 76.417969 C 74.394531 76.492188 74.464844 76.539062 74.539062 76.539062 C 74.5625 76.539062 74.585938 76.535156 74.609375 76.527344 L 77.144531 75.53125 C 77.253906 75.484375 77.347656 75.425781 77.4375 75.355469 C 77.464844 75.871094 77.144531 76.359375 76.644531 76.519531 Z M 76.644531 76.519531 " fill-opacity="1" fill-rule="nonzero"/></svg>